<?xml version="1.0" encoding="UTF-8" standalone="no"?>
<!-- Created with Inkscape (http://www.inkscape.org/) -->

<svg
   xmlns:dc="http://purl.org/dc/elements/1.1/"
   xmlns:cc="http://creativecommons.org/ns#"
   xmlns:rdf="http://www.w3.org/1999/02/22-rdf-syntax-ns#"
   xmlns:svg="http://www.w3.org/2000/svg"
   xmlns="http://www.w3.org/2000/svg"
   xmlns:sodipodi="http://sodipodi.sourceforge.net/DTD/sodipodi-0.dtd"
   xmlns:inkscape="http://www.inkscape.org/namespaces/inkscape"
   version="1.1"
   id="svg103"
   width="268"
   height="267"
   viewBox="0 0 268 267"
   sodipodi:docname="logo.svg"
   inkscape:version="0.92.3 (2405546, 2018-03-11)">
  <metadata
     id="metadata109">
    <rdf:RDF>
      <cc:Work
         rdf:about="">
        <dc:format>image/svg+xml</dc:format>
        <dc:type
           rdf:resource="http://purl.org/dc/dcmitype/StillImage" />
        <dc:title></dc:title>
      </cc:Work>
    </rdf:RDF>
  </metadata>
  <defs
     id="defs107" />
  <sodipodi:namedview
     pagecolor="#ffffff"
     bordercolor="#666666"
     borderopacity="1"
     objecttolerance="10"
     gridtolerance="10"
     guidetolerance="10"
     inkscape:pageopacity="0"
     inkscape:pageshadow="2"
     inkscape:window-width="1600"
     inkscape:window-height="835"
     id="namedview105"
     showgrid="false"
     inkscape:zoom="2.3333333"
     inkscape:cx="134"
     inkscape:cy="133.5"
     inkscape:window-x="0"
     inkscape:window-y="0"
     inkscape:window-maximized="1"
     inkscape:current-layer="g113" />
  <g
     id="g113"
     transform="translate(1.71429,-0.42857143)">
    <path
       style="fill:#f7f7f7"
       d="M 0,133.5 V 0 H 134 268 V 133.5 267 H 134 0 Z"
       id="path129"
       inkscape:connector-curvature="0" />
    <path
       style="fill:#a1a1a1"
       d="M 0,134 V 1 H 134 268 V 134 267 H 134 0 Z m 154.10043,77.92455 c 14.97977,-3.10299 29.97307,-14.44622 35.93512,-27.18683 7.47845,-15.98108 7.78419,-35.30448 0.7984,-50.46033 -1.2455,-2.70215 -5.27141,-7.82763 -9.268,-11.79931 C 172.75585,113.72288 164.13121,109.30675 140,101.19479 118.89794,94.101109 113.3434,91.387394 108.61215,85.859985 105.35367,82.053186 105,81.06626 105,75.780163 c 0,-7.75082 2.64509,-12.901825 8.33859,-16.238439 6.54197,-3.833851 14.04618,-5.025082 23.1376,-3.672902 16.49984,2.454046 28.06244,12.181123 34.92546,29.381178 l 1.4963,3.75 h 6.51087 6.51088 l 0.29015,-20.075349 c 0.15958,-11.041442 -0.0697,-20.716442 -0.50954,-21.5 -1.01235,-1.803505 -10.04692,-1.941389 -11.44359,-0.174651 -0.5435,0.6875 -1.41288,2.567851 -1.93197,4.178557 -1.68793,5.237597 -3.57612,5.400391 -8.84494,0.762585 C 144.59364,35.566873 109.87179,36.615671 90.285091,54.402041 78.910988,64.730682 73.992083,76.299844 74.011869,92.676317 74.03209,109.41321 77.906262,118.89592 88.999216,129.36045 96.942424,136.85367 106.86981,141.9226 125.5,147.99777 152.65459,156.85268 161,163.67058 161,177 c 0,15.45068 -13.20242,23.52996 -34.18377,20.91889 C 108.6146,195.65375 94.940756,183.27617 89.405906,164.05502 L 87.230393,156.5 80.615196,156.20431 c -4.893286,-0.21872 -6.621209,0.0416 -6.638296,1 -0.04575,2.56614 -0.06599,47.32594 -0.02197,48.59138 0.03334,0.9585 1.795241,1.21874 6.770282,1 l 6.725213,-0.29569 1.561249,-4.23646 c 2.536743,-6.88348 3.251888,-7.08175 8.591189,-2.38191 11.695117,10.29446 24.697897,14.44981 42.497567,13.58114 4.73023,-0.23085 11.03023,-0.92305 14,-1.53822 z"
       id="path127"
       inkscape:connector-curvature="0" />
    <path
       style="fill:#f94705"
       d="m 0,260.58333 c 0,-4.19766 0.43227387,-6.59109 1.25,-6.92105 1,-0.40351 1,-0.52017 0,-0.58333 C 0.25703147,253.01623 0,227.09123 0,127 V 1 H 134.02555 268.0511 l -0.0795,133 -0.0795,133 H 133.94607 0 Z m 158.15987,-47.91635 c 18.37666,-5.9827 30.66787,-17.88725 36.30825,-35.16606 2.09566,-6.4199 2.53056,-9.67247 2.52424,-18.87856 -0.0123,-17.96661 -3.93006,-27.65751 -15.59081,-38.56558 C 173.84447,112.98751 160.2262,105.94911 144.5,100.98477 123.91806,94.487603 115.74274,90.932626 111.33616,86.563719 c -6.64309,-6.586291 -7.09394,-15.353187 -1.13839,-22.136183 5.23876,-5.966618 7.93671,-6.876908 20.30223,-6.849995 10.27483,0.02236 11.43337,0.232672 17.57366,3.190123 4.15993,2.003616 8.437,5.136388 11.64836,8.531932 C 164.6512,74.511472 170,83.415991 170,86.410052 170,88.934499 174.17976,91 179.28825,91 188.33596,91 188,91.906263 188,67.5 c 0,-23.907939 0.11976,-23.516424 -7.18426,-23.486345 -5.99851,0.0247 -7.61244,0.972535 -9.50876,5.584328 -0.99384,2.416986 -2.20244,4.396207 -2.68578,4.398269 -0.48334,0.0021 -2.60468,-1.555484 -4.7141,-3.461212 C 155.54821,42.983278 143.49409,39 129,39 112.48001,39 98.919067,44.073722 88.358954,54.205533 81.115458,61.155245 78.093804,65.707399 74.834741,74.579907 71.789573,82.870106 71.576944,103.06156 74.45648,110.5 c 3.057822,7.89899 5.67282,12.0688 11.032068,17.59149 9.154576,9.43375 16.943742,13.73302 37.260652,20.56618 30.57089,10.28187 36.72249,15.07014 36.60111,28.48953 -0.0785,8.68329 -2.525,12.81385 -9.65206,16.29639 -9.79186,4.78466 -24.98875,4.31603 -36.49073,-1.12528 C 106.91157,189.33985 98.216589,181.04823 95.492897,175.42547 94.447064,173.26646 92.394074,167.9 90.930697,163.5 l -2.660686,-8 -6.283591,-0.70566 C 71.432249,153.60908 72,152.09576 72,181.41274 c 0,20.61048 0.263775,25.56128 1.41269,26.5148 0.849624,0.70512 3.938596,1.05286 7.75,0.87244 6.286752,-0.29759 6.353497,-0.33189 8.36636,-4.29998 3.584968,-7.06728 3.393931,-6.9652 6.833678,-3.65152 6.183982,5.95735 16.132762,10.92913 27.137272,13.56152 4.35323,1.04134 30.0816,-0.25253 34.65987,-1.74302 z"
       id="path125"
       inkscape:connector-curvature="0" />
    <path
       style="fill:#f42807"
       d="m 3,266 c 0,-0.55 0.3375,-1.00091 0.75,-1.00201 124.57031,-0.33413 262.81088,0.18464 263.07841,0.98724 C 267.05606,266.66818 223.9764,267 135.08333,267 47.694444,267 3,266.66162 3,266 Z m 261,-6 c 0,-0.55 0.45,-1 1,-1 0.55,0 1,0.45 1,1 0,0.55 -0.45,1 -1,1 -0.55,0 -1,-0.45 -1,-1 z M 2.2423721,253.99518 0,252.17941 V 126.58971 1 h 134 134 v 125.80887 c 0,105.90428 -0.2202,126.11001 -1.39179,127.71225 -1.10865,1.51618 -1.6842,1.66071 -2.8292,0.71044 -1.74873,-1.45132 -254.9365437,-1.7528 -257.6384511,-0.30678 -1.1405482,0.6104 -2.3536098,0.32112 -3.8981868,-0.9296 z M 158.15987,212.66698 c 18.37666,-5.9827 30.66787,-17.88725 36.30825,-35.16606 2.09566,-6.4199 2.53056,-9.67247 2.52424,-18.87856 -0.0123,-17.96661 -3.93006,-27.65751 -15.59081,-38.56558 C 173.84447,112.98751 160.2262,105.94911 144.5,100.98477 123.91806,94.487603 115.74274,90.932626 111.33616,86.563719 c -6.64309,-6.586291 -7.09394,-15.353187 -1.13839,-22.136183 5.23876,-5.966618 7.93671,-6.876908 20.30223,-6.849995 10.27483,0.02236 11.43337,0.232672 17.57366,3.190123 4.15993,2.003616 8.437,5.136388 11.64836,8.531932 C 164.6512,74.511472 170,83.415991 170,86.410052 170,88.934499 174.17976,91 179.28825,91 188.33596,91 188,91.906263 188,67.5 c 0,-23.907939 0.11976,-23.516424 -7.18426,-23.486345 -5.99851,0.0247 -7.61244,0.972535 -9.50876,5.584328 -0.99384,2.416986 -2.20244,4.396207 -2.68578,4.398269 -0.48334,0.0021 -2.60468,-1.555484 -4.7141,-3.461212 C 155.54821,42.983278 143.49409,39 129,39 112.48001,39 98.919067,44.073722 88.358954,54.205533 81.115458,61.155245 78.093804,65.707399 74.834741,74.579907 71.789573,82.870106 71.576944,103.06156 74.45648,110.5 c 3.057822,7.89899 5.67282,12.0688 11.032068,17.59149 9.154576,9.43375 16.943742,13.73302 37.260652,20.56618 30.57089,10.28187 36.72249,15.07014 36.60111,28.48953 -0.0785,8.68329 -2.525,12.81385 -9.65206,16.29639 -9.79186,4.78466 -24.98875,4.31603 -36.49073,-1.12528 C 106.91157,189.33985 98.216589,181.04823 95.492897,175.42547 94.447064,173.26646 92.394074,167.9 90.930697,163.5 l -2.660686,-8 -6.283591,-0.70566 C 71.432249,153.60908 72,152.09576 72,181.41274 c 0,20.61048 0.263775,25.56128 1.41269,26.5148 0.849624,0.70512 3.938596,1.05286 7.75,0.87244 6.286752,-0.29759 6.353497,-0.33189 8.36636,-4.29998 3.584968,-7.06728 3.393931,-6.9652 6.833678,-3.65152 6.183982,5.95735 16.132762,10.92913 27.137272,13.56152 4.35323,1.04134 30.0816,-0.25253 34.65987,-1.74302 z"
       id="path123"
       inkscape:connector-curvature="0" />
    <path
       style="fill:#5f5f5f"
       d="M 1.25,253.33964 C 0.25929876,252.93836 0,226.71331 0,126.91667 V 1 H 134.00385 268.00769 L 267.75385,127.25 267.5,253.5 135,253.67297 C 62.125,253.7681 1.9375,253.6181 1.25,253.33964 Z m 156.90987,-40.67266 c 18.37666,-5.9827 30.66787,-17.88725 36.30825,-35.16606 2.09566,-6.4199 2.53056,-9.67247 2.52424,-18.87856 -0.0123,-17.96661 -3.93006,-27.65751 -15.59081,-38.56558 C 173.84447,112.98751 160.2262,105.94911 144.5,100.98477 123.91806,94.487603 115.74274,90.932626 111.33616,86.563719 c -6.64309,-6.586291 -7.09394,-15.353187 -1.13839,-22.136183 5.23876,-5.966618 7.93671,-6.876908 20.30223,-6.849995 10.27483,0.02236 11.43337,0.232672 17.57366,3.190123 4.15993,2.003616 8.437,5.136388 11.64836,8.531932 C 164.6512,74.511472 170,83.415991 170,86.410052 170,88.934499 174.17976,91 179.28825,91 188.33596,91 188,91.906263 188,67.5 c 0,-23.907939 0.11976,-23.516424 -7.18426,-23.486345 -5.99851,0.0247 -7.61244,0.972535 -9.50876,5.584328 -0.99384,2.416986 -2.20244,4.396207 -2.68578,4.398269 -0.48334,0.0021 -2.60468,-1.555484 -4.7141,-3.461212 C 155.54821,42.983278 143.49409,39 129,39 112.48001,39 98.919067,44.073722 88.358954,54.205533 81.115458,61.155245 78.093804,65.707399 74.834741,74.579907 71.789573,82.870106 71.576944,103.06156 74.45648,110.5 c 3.057822,7.89899 5.67282,12.0688 11.032068,17.59149 9.154576,9.43375 16.943742,13.73302 37.260652,20.56618 30.57089,10.28187 36.72249,15.07014 36.60111,28.48953 -0.0785,8.68329 -2.525,12.81385 -9.65206,16.29639 -9.79186,4.78466 -24.98875,4.31603 -36.49073,-1.12528 C 106.91157,189.33985 98.216589,181.04823 95.492897,175.42547 94.447064,173.26646 92.394074,167.9 90.930697,163.5 l -2.660686,-8 -6.283591,-0.70566 C 71.432249,153.60908 72,152.09576 72,181.41274 c 0,20.61048 0.263775,25.56128 1.41269,26.5148 0.849624,0.70512 3.938596,1.05286 7.75,0.87244 6.286752,-0.29759 6.353497,-0.33189 8.36636,-4.29998 3.584968,-7.06728 3.393931,-6.9652 6.833678,-3.65152 6.183982,5.95735 16.132762,10.92913 27.137272,13.56152 4.35323,1.04134 30.0816,-0.25253 34.65987,-1.74302 z"
       id="path121"
       inkscape:connector-curvature="0" />
    <path
       style="fill:#a22a00"
       d="M 2.0077487,129.10105 C 1.9953577,60.406621 2.2616902,3.4816211 2.5995987,2.6010459 3.1586495,1.1441828 15.091653,1 135.10699,1 H 267 V 127.5 254 H 134.51514 2.0302777 Z M 158.93961,213.48491 c 19.32528,-6.98956 31.59065,-19.39318 37.49045,-37.91305 2.40738,-7.5569 2.15972,-27.54453 -0.43472,-35.0854 -6.77331,-19.68697 -20.6472,-30.6087 -51.49534,-40.537892 -21.82812,-7.025885 -30.20274,-10.677511 -33.73011,-14.707496 -3.1879,-3.64213 -4.2802,-8.883996 -2.91495,-13.988517 2.44565,-9.14401 8.28624,-12.549536 21.69246,-12.648406 10.78827,-0.07956 18.15428,2.074704 25.21506,7.374413 5.46118,4.09907 12.6993,14.308868 14.26421,20.120501 1.32916,4.936114 4.16596,6.236473 12.35771,5.664641 C 190.05399,91.158514 190,91.311774 190,67.30887 190,48.333333 189.86869,46.868694 188,45 c -1.47359,-1.473588 -3.33333,-2 -7.06574,-2 -6.4845,0 -8.15977,0.956084 -10.40686,5.939239 C 169.52027,51.172658 168.39304,53 168.02244,53 c -0.3706,0 -1.76475,-1.178842 -3.09813,-2.619648 -3.6935,-3.991103 -8.88056,-6.963472 -17.10669,-9.802753 C 141.62333,38.439619 138.54279,38 129.75559,38 117.25971,38 109.72516,39.696464 99.778646,44.749546 87.985741,50.740643 78.954287,60.979862 73.793128,74.210079 72.072014,78.622017 71.719996,81.82362 71.672194,93.5 c -0.05608,13.69736 0.01178,14.14908 3.138986,20.89656 5.383215,11.61521 14.545894,20.786 27.24942,27.27356 6.12733,3.12916 8.32028,3.99096 22.4394,8.81838 19.74402,6.75061 23.70142,8.66029 29.06825,14.02712 L 158,168.94737 v 7.68192 c 0,6.69484 -0.32788,8.1118 -2.55169,11.02737 -3.30394,4.33168 -6.7128,6.02771 -14.67012,7.2989 -8.49996,1.35787 -20.12491,-0.11484 -27.15369,-3.43999 -6.1042,-2.88774 -14.334807,-11.06724 -17.623952,-17.5145 -1.221173,-2.39369 -3.232148,-7.76067 -4.468831,-11.92662 L 89.2832,154.5 82.3916,153.88575 C 78.60122,153.54792 74.4875,153.64928 73.25,154.111 L 71,154.9505 v 26.4023 c 0,21.4776 0.262535,26.6202 1.4075,27.57043 0.872375,0.72401 4.194823,1.05571 8.738787,0.87245 l 7.331286,-0.29568 2.251499,-4.75 c 1.238325,-2.6125 2.524318,-4.75 2.857764,-4.75 0.333445,0 2.595387,1.7509 5.026538,3.89088 6.343936,5.58416 15.588916,9.78282 25.386626,11.52948 5.72959,1.02142 30.56847,-0.3545 34.93961,-1.93545 z m 62.08374,-6.03314 2.20176,-4.54823 -5.36256,-5.83883 c -2.9494,-3.21136 -5.92505,-5.88966 -6.61255,-5.95177 -0.91372,-0.0826 -1.24863,2.24105 -1.2449,8.63706 l 0.005,8.75 3.7449,1.65395 c 5.12509,2.26352 4.80718,2.38171 7.26825,-2.70218 z"
       id="path119"
       inkscape:connector-curvature="0" />
    <path
       style="fill:#2f2f2f"
       d="M 2.6666667,251.33333 C 1.8338094,250.50048 1.7748516,4.7503023 2.6069888,2.5817875 3.1562378,1.1504676 15.760303,1 135.10699,1 H 267 V 126.5 252 H 135.16667 C 62.658333,252 3.0333333,251.7 2.6666667,251.33333 Z M 158.93961,213.48491 c 19.32528,-6.98956 31.59065,-19.39318 37.49045,-37.91305 2.40738,-7.5569 2.15972,-27.54453 -0.43472,-35.0854 -6.77331,-19.68697 -20.6472,-30.6087 -51.49534,-40.537892 -21.82812,-7.025885 -30.20274,-10.677511 -33.73011,-14.707496 -3.1879,-3.64213 -4.2802,-8.883996 -2.91495,-13.988517 2.44565,-9.14401 8.28624,-12.549536 21.69246,-12.648406 10.78827,-0.07956 18.15428,2.074704 25.21506,7.374413 5.46118,4.09907 12.6993,14.308868 14.26421,20.120501 1.32916,4.936114 4.16596,6.236473 12.35771,5.664641 C 190.05399,91.158514 190,91.311774 190,67.30887 190,48.333333 189.86869,46.868694 188,45 c -1.47359,-1.473588 -3.33333,-2 -7.06574,-2 -6.4845,0 -8.15977,0.956084 -10.40686,5.939239 C 169.52027,51.172658 168.39304,53 168.02244,53 c -0.3706,0 -1.76475,-1.178842 -3.09813,-2.619648 -3.6935,-3.991103 -8.88056,-6.963472 -17.10669,-9.802753 C 141.62333,38.439619 138.54279,38 129.75559,38 117.25971,38 109.72516,39.696464 99.778646,44.749546 87.985741,50.740643 78.954287,60.979862 73.793128,74.210079 72.072014,78.622017 71.719996,81.82362 71.672194,93.5 c -0.05608,13.69736 0.01178,14.14908 3.138986,20.89656 5.383215,11.61521 14.545894,20.786 27.24942,27.27356 6.12733,3.12916 8.32028,3.99096 22.4394,8.81838 19.74402,6.75061 23.70142,8.66029 29.06825,14.02712 L 158,168.94737 v 7.68192 c 0,6.69484 -0.32788,8.1118 -2.55169,11.02737 -3.30394,4.33168 -6.7128,6.02771 -14.67012,7.2989 -8.49996,1.35787 -20.12491,-0.11484 -27.15369,-3.43999 -6.1042,-2.88774 -14.334807,-11.06724 -17.623952,-17.5145 -1.221173,-2.39369 -3.232148,-7.76067 -4.468831,-11.92662 L 89.2832,154.5 82.3916,153.88575 C 78.60122,153.54792 74.4875,153.64928 73.25,154.111 L 71,154.9505 v 26.4023 c 0,21.4776 0.262535,26.6202 1.4075,27.57043 0.872375,0.72401 4.194823,1.05571 8.738787,0.87245 l 7.331286,-0.29568 2.251499,-4.75 c 1.238325,-2.6125 2.524318,-4.75 2.857764,-4.75 0.333445,0 2.595387,1.7509 5.026538,3.89088 6.343936,5.58416 15.588916,9.78282 25.386626,11.52948 5.72959,1.02142 30.56847,-0.3545 34.93961,-1.93545 z m 62.08374,-6.03314 2.20176,-4.54823 -5.36256,-5.83883 c -2.9494,-3.21136 -5.92505,-5.88966 -6.61255,-5.95177 -0.91372,-0.0826 -1.24863,2.24105 -1.2449,8.63706 l 0.005,8.75 3.7449,1.65395 c 5.12509,2.26352 4.80718,2.38171 7.26825,-2.70218 z"
       id="path117"
       inkscape:connector-curvature="0" />
    <path
       style="fill:#020202"
       d="M 4.6666667,250.33333 C 4.3,249.96667 4,194.16667 4,126.33333 V 3 H 134.5 265 V 127 251 H 135.16667 C 63.758333,251 5.0333333,250.7 4.6666667,250.33333 Z M 157,215.30845 c 10.52556,-2.94359 18.09724,-7.39648 26.05439,-15.3225 C 190.60031,192.46954 197,182.02675 197,177.22999 c 0,-1.16158 0.45,-2.39007 1,-2.72999 0.59654,-0.36868 1,-6.82405 1,-16 0,-9.17595 -0.40346,-15.63132 -1,-16 -0.55,-0.33992 -1,-1.54099 -1,-2.66904 0,-2.93339 -5.34135,-12.536 -9.99872,-17.97558 -2.1872,-2.55453 -6.34475,-6.21381 -9.23901,-8.13173 C 170.30041,108.77895 154.6021,101 152.0853,101 c -0.61184,0 -1.89383,-0.394 -2.84887,-0.87556 C 148.28139,99.642887 144.8,98.473704 141.5,97.52626 138.2,96.578815 134.02223,95.172816 132.21607,94.401817 130.40991,93.630817 128.47865,93 127.92437,93 c -2.21615,0 -13.55447,-5.963325 -15.51253,-8.158729 -3.76142,-4.217341 -4.85945,-8.398792 -3.45134,-13.143059 1.51418,-5.101622 2.4429,-6.296504 7.25495,-9.334218 C 119.54,60.265298 121.14237,60 130.4937,60 c 5.79339,0 11.31483,0.421768 12.26987,0.937263 0.95504,0.515495 3.89839,1.957474 6.54078,3.204398 8.04322,3.795534 16.59186,14.529643 18.59451,23.348212 0.96897,4.266792 4.28023,5.643805 12.71242,5.286557 C 191.48103,92.315908 191,93.489341 191,67.434259 c 0,-21.932117 -0.0387,-22.347962 -2.22251,-23.877555 -2.2342,-1.5649 -11.99857,-2.176571 -15.19079,-0.951601 -0.86728,0.332807 -2.55356,2.342885 -3.74729,4.46684 l -2.17042,3.861736 -3.60031,-3.216839 C 160.58535,44.60452 152.20758,40.400375 145,38.147773 140.32376,36.686296 116.79491,36.504212 114.16969,37.909184 113.04868,38.509133 111.24808,39 110.16837,39 c -2.85163,0 -13.987174,5.694178 -18.86623,9.647272 -9.546579,7.7348 -13.401762,13.05982 -19.731309,27.254116 -1.422633,3.190321 -1.402371,31.069202 0.02485,34.197222 7.659765,16.78773 17.48848,27.09286 32.434359,34.00652 7.84519,3.62903 11.12637,4.89651 12.75389,4.92667 0.94384,0.0175 2.58958,0.6925 3.6572,1.5 1.06762,0.80751 3.17856,1.4682 4.69098,1.4682 1.51242,0 3.02797,0.45 3.36789,1 0.33992,0.55 1.31097,1 2.15789,1 1.53049,0 4.78404,1.2877 13.28483,5.25788 2.44349,1.14121 6.38099,4.0132 8.75,6.38221 C 156.95478,169.90215 157,170.02141 157,177 c 0,6.98715 -0.0403,7.09294 -4.34133,11.39396 -4.14684,4.14684 -4.68315,4.37336 -11.97148,5.05633 -10.3104,0.96616 -20.11862,-0.18833 -26.35338,-3.10196 C 107.87267,187.3289 98.109566,177.03228 95.910885,170.91866 95.036872,168.4884 93.756001,164.925 93.064505,163 c -0.691496,-1.925 -1.567918,-4.85 -1.947604,-6.5 -0.6676,-2.90118 -0.936172,-3.0274 -8.15362,-3.83199 -4.848387,-0.54049 -8.426793,-0.46157 -10.213281,0.22525 L 70,153.9505 v 27.4023 c 0,22.29639 0.261438,27.61929 1.40308,28.56676 0.88972,0.73841 4.45476,1.05762 9.743713,0.87245 L 89.487425,210.5 91.192885,207 c 0.938002,-1.925 1.894111,-3.95 2.124685,-4.5 0.230574,-0.55 1.715947,0.15554 3.300828,1.56786 C 101.80072,208.68594 110.99157,214 113.79638,214 c 0.99199,0 2.32033,0.51671 2.95186,1.14824 2.76051,2.76051 30.55814,2.87115 40.25176,0.16021 z m 64.95321,-6.93557 C 223.07894,205.82797 224,203.31956 224,202.79864 224,201.06927 212.7258,190 210.96441,190 c -2.156,0 -2.93757,2.79567 -2.93544,10.5 0.002,6.96887 0.63574,8.27181 5.14755,10.58188 5.35563,2.74212 6.52507,2.38116 8.77669,-2.709 z M 69.25,1.2501244 c 36.1625,-0.1454769 95.3375,-0.1454769 131.5,0 36.1625,0.1454769 6.575,0.2645035 -65.75,0.2645035 -72.325,0 -101.9125,-0.1190266 -65.75,-0.2645035 z"
       id="path115"
       inkscape:connector-curvature="0" />
  </g>
</svg>
